<?xml version="1.0" encoding="UTF-8" standalone="no"?>
<svg
   xmlns:dc="http://purl.org/dc/elements/1.1/"
   xmlns:cc="http://creativecommons.org/ns#"
   xmlns:rdf="http://www.w3.org/1999/02/22-rdf-syntax-ns#"
   xmlns:svg="http://www.w3.org/2000/svg"
   xmlns="http://www.w3.org/2000/svg"
   xmlns:sodipodi="http://sodipodi.sourceforge.net/DTD/sodipodi-0.dtd"
   xmlns:inkscape="http://www.inkscape.org/namespaces/inkscape"
   version="1.0"
   width="358.000000pt"
   height="358.000000pt"
   viewBox="0 0 358.000000 358.000000"
   preserveAspectRatio="xMidYMid meet"
   id="svg2"
   inkscape:version="0.91 r13725"
   sodipodi:docname="qTrassaLogo.svg">
  <defs
     id="defs20" />
  <sodipodi:namedview
     pagecolor="#ffffff"
     bordercolor="#666666"
     borderopacity="1"
     objecttolerance="10"
     gridtolerance="10"
     guidetolerance="10"
     inkscape:pageopacity="0"
     inkscape:pageshadow="2"
     inkscape:window-width="751"
     inkscape:window-height="480"
     id="namedview18"
     showgrid="false"
     inkscape:zoom="0.5273743"
     inkscape:cx="223.75"
     inkscape:cy="223.75"
     inkscape:window-x="0"
     inkscape:window-y="0"
     inkscape:window-maximized="0"
     inkscape:current-layer="svg2" />
  <metadata
     id="metadata4">
Created by potrace 1.13, written by Peter Selinger 2001-2015
<rdf:RDF>
  <cc:Work
     rdf:about="">
    <dc:format>image/svg+xml</dc:format>
    <dc:type
       rdf:resource="http://purl.org/dc/dcmitype/StillImage" />
  </cc:Work>
</rdf:RDF>
</metadata>
  <g
     transform="translate(0.000000,358.000000) scale(0.100000,-0.100000)"
     fill="#000000"
     stroke="none"
     id="g6"
     style="fill:#ff0000;fill-opacity:1">
    <path
       d="M120 3497 c-13 -7 -30 -24 -37 -37 -10 -20 -13 -372 -13 -1678 l0 -1653 25 -24 c13 -14 34 -25 47 -26 169 -6 3288 -5 3304 1 58 22 54 -92 54 1713 1 1103 -3 1663 -9 1676 -6 10 -25 24 -42 30 -49 17 -3295 15 -3329 -2z m1974 -207 c756 -149 1315 -786 1353 -1542 l6 -128 -321 0 -322 0 0 50 0 50 95 0 95 0 0 29 c0 61 -32 269 -55 361 -64 251 -176 459 -336 620 -95 96 -180 157 -300 214 -169 81 -329 116 -532 116 -677 0 -1147 -488 -1212 -1257 l-7 -83 96 0 96 0 0 -50 0 -50 -322 0 -321 0 6 123 c36 754 607 1407 1353 1546 151 28 167 29 354 26 117 -2 197 -10 274 -25z m-260 -706 c33 -32 77 -105 70 -115 -3 -6 -17 -8 -31 -4 -18 4 -24 2 -21 -7 3 -7 26 -16 53 -19 27 -3 50 -10 52 -16 2 -6 26 -39 53 -74 61 -78 64 -99 14 -99 l-35 0 25 -32 c21 -28 30 -32 64 -29 36 2 43 -2 75 -41 69 -82 167 -220 167 -234 0 -10 -13 -14 -45 -14 l-45 0 52 -80 53 -80 62 0 62 0 121 -166 c66 -92 120 -173 120 -180 0 -10 -16 -14 -60 -14 l-60 0 33 -47 c18 -27 71 -103 116 -170 l83 -123 78 0 79 0 36 -47 c126 -166 305 -415 305 -426 0 -3 -38 -8 -85 -9 l-85 -3 85 -122 c47 -67 85 -124 85 -128 0 -3 -93 -4 -207 -3 l-208 3 -65 122 c-36 67 -69 127 -75 132 -7 6 -875 32 -892 26 -1 -1 9 -57 23 -124 17 -81 22 -127 16 -133 -14 -14 -393 1 -397 16 -1 6 -9 65 -16 131 l-14 120 -67 -3 c-47 -2 -70 2 -81 12 -15 15 -21 78 -33 318 l-7 138 73 0 73 0 -8 88 c-4 48 -11 123 -14 166 l-6 80 -56 -3 c-40 -2 -61 2 -72 13 -18 18 -29 107 -31 245 l-1 96 62 3 62 3 -4 32 c-3 18 -7 53 -10 80 l-6 47 -59 0 c-71 0 -69 -5 -73 160 l-2 115 53 3 c50 3 52 4 52 33 0 28 -1 29 -49 29 -28 0 -53 6 -59 13 -6 7 -12 49 -14 92 l-3 80 53 3 c69 4 65 26 -6 30 l-51 3 -6 54 c-4 29 -4 58 0 64 4 8 107 11 320 11 272 0 316 -2 329 -16z"
       id="path8"
       style="fill:#ff0000;fill-opacity:1" />
    <path
       d="M1457 2464 c-20 -20 4 -24 144 -24 121 0 149 3 141 13 -12 14 -271 24 -285 11z"
       id="path10"
       style="fill:#ff0000;fill-opacity:1" />
    <path
       d="M1503 2220 c11 -29 13 -30 87 -32 168 -5 290 -3 290 5 0 4 -7 19 -16 32 l-16 25 -178 0 -178 0 11 -30z"
       id="path12"
       style="fill:#ff0000;fill-opacity:1" />
    <path
       d="M1570 1905 c0 0 6 -31 14 -69 8 -38 19 -73 23 -77 7 -7 513 -18 513 -11 0 11 -76 145 -85 148 -6 2 -471 11 -465 9z"
       id="path14"
       style="fill:#ff0000;fill-opacity:1" />
    <path
       d="M1686 1358 c3 -18 12 -49 19 -68 7 -20 16 -58 20 -85 5 -46 25 -136 30 -143 2 -2 164 -5 361 -8 198 -3 365 -7 372 -9 14 -5 16 7 3 20 -8 10 -86 152 -141 260 l-25 50 -155 6 c-85 4 -230 7 -322 8 l-167 1 5 -32z"
       id="path16"
       style="fill:#ff0000;fill-opacity:1" />
  </g>
</svg>
